<svg version="1.1" id="Layer_1" xmlns:x="ns_extend;" xmlns:i="ns_ai;" xmlns:graph="ns_graphs;" xmlns="http://www.w3.org/2000/svg" xmlns:xlink="http://www.w3.org/1999/xlink" x="0px" y="0px" viewBox="0 0 198.8 75" style="enable-background:new 0 0 198.8 75;" xml:space="preserve">
 <style type="text/css">
  .st0{fill-rule:evenodd;clip-rule:evenodd;fill:#4E7EFF;}
 </style>
 <metadata>
  <sfw xmlns="ns_sfw;">
   <slices>
   </slices>
   <sliceSourceBounds bottomLeftOrigin="true" height="75" width="198.8" x="-114" y="0">
   </sliceSourceBounds>
  </sfw>
 </metadata>
 <g>
  <path class="st0" d="M180.5,73.8h16V26.4h-16V73.8z">
  </path>
  <path class="st0" d="M198.8,10.4c0-5.7-4.6-10.4-10.3-10.4c-5.7,0-10.3,4.6-10.3,10.4s4.6,10.4,10.3,10.4
		C194.2,20.7,198.8,16.1,198.8,10.4z">
  </path>
  <path class="st0" d="M146.4,59c-6.1,0-11.1-5-11.1-11.2c0-6.2,5-11.2,11.1-11.2c6.1,0,11.1,5,11.1,11.2C157.5,54,152.5,59,146.4,59
		z M173.5,47.9V2.7h-16v21.1c-3-2-7.1-3.1-11.1-3.1c-15,0-27.1,12.2-27.1,27.1c0,15,12.1,27.1,27.1,27.1
		C160.9,75,173.5,63.8,173.5,47.9z">
  </path>
  <path class="st0" d="M86.9,59c-6.1,0-11.1-5-11.1-11.2c0-6.2,5-11.2,11.1-11.2c6.1,0,11.1,5,11.1,11.2C98,54,93.1,59,86.9,59z
		 M114,47.9V2.7H98v21.1c-3-2-7.1-3.1-11.1-3.1c-15,0-27.1,12.2-27.1,27.1C59.8,62.8,72,75,86.9,75C101.4,75,114,63.8,114,47.9z">
  </path>
  <path class="st0" d="M27.1,34.5c-5.1,0-9.4,3.2-11.1,7.7v-15C16,21,21,16,27.1,16c6.1,0,11.1,5,11.1,11.2v15
		C36.5,37.7,32.2,34.5,27.1,34.5z M38.2,50.8v22.8h16V28.3c0-0.4,0-0.7,0-1.1c0-15-12.1-27.1-27.1-27.1C12.1,0.1,0,12.2,0,27.2v46.3
		h16V50.6c1.7,4.6,6,7.8,11.1,7.8c5,0,9.3-3.1,11-7.5L38.2,50.8z">
  </path>
 </g>
</svg>