<?xml version="1.0" encoding="UTF-8"?> <svg xmlns="http://www.w3.org/2000/svg" width="165" height="38" viewBox="0 0 165 38" fill="none"><path fill-rule="evenodd" clip-rule="evenodd" d="M0 16.5425V4.49372L14.8293 0L29.6585 4.49372V16.5425C29.6585 28.5914 14.8293 33.2254 14.8293 33.2254C14.8293 33.2254 0 28.5914 0 16.5425ZM24.0976 15.7561C24.0976 20.8748 19.948 25.0244 14.8293 25.0244C9.71053 25.0244 5.56098 20.8748 5.56098 15.7561C5.56098 10.6374 9.71053 6.48781 14.8293 6.48781C19.948 6.48781 24.0976 10.6374 24.0976 15.7561Z" fill="#4D81F1"></path><path fill-rule="evenodd" clip-rule="evenodd" d="M20.0834 13.6645L13.2846 19.7835L9.57512 16.445L10.8152 15.0672L13.2846 17.2897L18.8434 12.2867L20.0834 13.6645Z" fill="#4D81F1"></path><path d="M55.6543 3.58496C57.9553 3.58496 60.0215 4.12499 61.8529 5.20506C63.7078 6.28512 65.1635 7.79956 66.2201 9.74838C67.2767 11.6737 67.805 13.8573 67.805 16.2992C67.805 18.7411 67.2767 20.9364 66.2201 22.8853C65.1635 24.8106 63.7078 26.3133 61.8529 27.3934C60.0215 28.4734 57.9553 29.0135 55.6543 29.0135C53.3533 29.0135 51.2636 28.4734 49.3852 27.3934C47.5303 26.3133 46.0746 24.8106 45.018 22.8853C43.9614 20.9364 43.4331 18.7411 43.4331 16.2992C43.4331 13.8573 43.9614 11.6737 45.018 9.74838C46.0746 7.79956 47.5303 6.28512 49.3852 5.20506C51.2636 4.12499 53.3533 3.58496 55.6543 3.58496ZM55.6543 6.57862C53.9403 6.57862 52.4023 6.97778 51.0405 7.77608C49.7022 8.55091 48.6456 9.67794 47.8708 11.1572C47.1194 12.6129 46.7437 14.3269 46.7437 16.2992C46.7437 18.248 47.1194 19.962 47.8708 21.4413C48.6456 22.9205 49.7022 24.0592 51.0405 24.8575C52.4023 25.6324 53.9403 26.0198 55.6543 26.0198C57.3448 26.0198 58.8593 25.6206 60.1976 24.8223C61.5594 24.024 62.616 22.897 63.3674 21.4413C64.1422 19.962 64.5296 18.248 64.5296 16.2992C64.5296 14.3269 64.1422 12.6129 63.3674 11.1572C62.616 9.67794 61.5594 8.55091 60.1976 7.77608C58.8593 6.97778 57.3448 6.57862 55.6543 6.57862Z" fill="#4D81F1"></path><path d="M83.1613 9.14964C84.8753 9.14964 86.4015 9.5488 87.7398 10.3471C89.0781 11.1454 90.123 12.2959 90.8743 13.7986C91.6492 15.3013 92.0366 17.0623 92.0366 19.0815C92.0366 21.1008 91.6492 22.8618 90.8743 24.3645C90.123 25.8437 89.0781 26.9825 87.7398 27.7808C86.4015 28.5791 84.8753 28.9782 83.1613 28.9782C81.2829 28.9782 79.6863 28.5086 78.3714 27.5694C77.08 26.6068 76.1878 25.3506 75.6947 23.801V37.8888H72.4898V9.39618H75.6947V14.3269C76.1878 12.7773 77.08 11.5328 78.3714 10.5936C79.6863 9.63098 81.2829 9.14964 83.1613 9.14964ZM82.2456 12.0024C81.0011 12.0024 79.8741 12.2959 78.8645 12.8829C77.8549 13.4464 77.0683 14.2682 76.5048 15.3483C75.9413 16.4283 75.6595 17.6728 75.6595 19.0815C75.6595 20.4903 75.9413 21.7348 76.5048 22.8148C77.0683 23.8714 77.8549 24.6932 78.8645 25.2802C79.8741 25.8672 81.0011 26.1607 82.2456 26.1607C84.2413 26.1607 85.8262 25.5385 87.0002 24.294C88.1977 23.0261 88.7964 21.2886 88.7964 19.0815C88.7964 16.8745 88.1977 15.1487 87.0002 13.9043C85.8262 12.6364 84.2413 12.0024 82.2456 12.0024Z" fill="#4D81F1"></path><path d="M105.801 25.9141V28.7317H103.406C101.434 28.7317 99.9549 28.2621 98.9688 27.3229C98.0061 26.3837 97.5248 24.8106 97.5248 22.6035V12.1785H94.6368V9.39618H97.5248V4.57111H100.765V9.39618H105.766V12.1785H100.765V22.6739C100.765 23.9184 100.988 24.7754 101.434 25.245C101.904 25.6911 102.702 25.9141 103.829 25.9141H105.801Z" fill="#4D81F1"></path><path d="M127.85 17.9897C127.85 18.6707 127.803 19.2576 127.71 19.7507H112.248C112.319 21.9578 112.941 23.6131 114.115 24.7167C115.312 25.8202 116.768 26.372 118.482 26.372C120.032 26.372 121.323 25.9846 122.356 25.2097C123.413 24.4114 124.058 23.3548 124.293 22.04H127.71C127.475 23.3783 126.946 24.5758 126.125 25.6324C125.326 26.689 124.282 27.5107 122.99 28.0977C121.699 28.6847 120.243 28.9782 118.623 28.9782C116.768 28.9782 115.124 28.5791 113.692 27.7808C112.26 26.9825 111.133 25.8437 110.311 24.3645C109.513 22.8618 109.114 21.1008 109.114 19.0815C109.114 17.0623 109.513 15.3013 110.311 13.7986C111.133 12.2959 112.26 11.1454 113.692 10.3471C115.124 9.5488 116.768 9.14964 118.623 9.14964C120.501 9.14964 122.133 9.5488 123.518 10.3471C124.927 11.1454 125.996 12.2137 126.723 13.5521C127.475 14.8904 127.85 16.3696 127.85 17.9897ZM124.61 18.2011C124.681 16.7688 124.446 15.5713 123.906 14.6087C123.366 13.646 122.626 12.9299 121.687 12.4603C120.748 11.9907 119.726 11.7559 118.623 11.7559C116.862 11.7559 115.383 12.3077 114.185 13.4112C112.988 14.4913 112.342 16.0879 112.248 18.2011H124.61Z" fill="#4D81F1"></path><path d="M135.6 13.3055C136.233 11.9672 137.161 10.9341 138.382 10.2062C139.603 9.45488 141.059 9.07921 142.749 9.07921V12.5659H141.763C139.955 12.5659 138.476 13.0355 137.325 13.9747C136.175 14.8904 135.6 16.4166 135.6 18.5533V28.7317H132.395V9.39618H135.6V13.3055Z" fill="#4D81F1"></path><path d="M147.602 9.39618L153.871 24.611L159.682 9.39618H163.239L151.758 37.8888H148.13L152.145 28.4147L144.01 9.39618H147.602Z" fill="#4D81F1"></path></svg> 