<svg xmlns="http://www.w3.org/2000/svg" width="236" height="43" viewBox="0 0 236 43" fill="none"><path d="M160.284 27.501C160.284 28.9025 160.201 30.0402 160.036 30.9306C159.69 32.8268 158.684 34.5416 157.019 36.075C154.859 38.0536 152.254 39.0594 149.154 39.0594C145.493 39.0594 142.526 37.3611 140.267 33.9645L146.071 27.9957C146.334 30.2381 147.307 31.3593 148.956 31.3593C150.654 31.3593 151.479 30.0237 151.446 27.3691L151.413 25.4729V3.67523H160.284V27.501Z" fill="#9AC33C"></path><path d="M100.266 25.9511L96.5066 14.7225L92.6978 25.9511H100.266ZM114.627 39.0594H104.965L102.723 32.9092H90.208L87.8172 39.0594H78.2539L91.659 3.82364H101.536L114.627 39.0594Z" fill="#696868"></path><path d="M144.851 3.82364L131.808 22.1258V39.0594H122.74V22.1258L110.143 3.82364H120.959L127.538 13.4364L133.869 3.82364H144.851Z" fill="#696868"></path><path d="M68.658 15.5304C68.658 14.2278 68.2787 13.1726 67.5203 12.3811C66.7618 11.5897 65.4757 11.194 63.6455 11.194H60.5951V19.9658H63.6125C65.5746 19.9658 66.9267 19.5371 67.6522 18.6632C68.3282 17.9212 68.658 16.866 68.658 15.5304ZM78.0564 15.4315C78.0564 18.6138 77.3144 21.2354 75.8304 23.3294C73.9178 26.0335 70.719 27.3691 66.2671 27.3691H60.5951V39.0594H51.543V3.82364H65.9539C70.0595 3.82364 73.1593 5.04378 75.2863 7.46758C77.133 9.54512 78.0564 12.1998 78.0564 15.4315Z" fill="#696868"></path><path d="M192.172 21.4497C192.172 19.1249 191.43 17.0968 189.963 15.3985C188.067 13.222 185.709 12.1503 182.873 12.1503C180.911 12.1503 179.147 12.7109 177.564 13.8156C175.981 14.9203 174.843 16.4043 174.184 18.251C173.804 19.3062 173.606 20.378 173.606 21.4662C173.606 23.6922 174.348 25.7038 175.816 27.468C177.646 29.661 180.004 30.7492 182.873 30.7492C185.758 30.7492 188.116 29.661 189.963 27.501C191.43 25.7367 192.172 23.7251 192.172 21.4497ZM200.994 21.4497C200.994 25.9346 199.51 29.8753 196.558 33.2719C193.178 37.1302 188.627 39.0594 182.873 39.0594C177.135 39.0594 172.584 37.1302 169.221 33.2719C166.269 29.8753 164.785 25.9346 164.785 21.4497C164.785 19.4052 165.181 17.2947 165.972 15.1347C166.78 12.9747 167.836 11.128 169.188 9.59456C172.551 5.73627 177.118 3.80713 182.873 3.80713C188.627 3.80713 193.178 5.73627 196.558 9.59456C199.51 12.9912 200.994 16.9319 200.994 21.4497Z" fill="#9AC33C"></path><path d="M235.751 3.82364L222.709 22.1258V39.0594H213.64V22.1258L201.043 3.82364H211.859L218.438 13.4199L224.77 3.82364H235.751Z" fill="#9AC33C"></path><path fill-rule="evenodd" clip-rule="evenodd" d="M41.9795 0.0147858C38.3026 -0.0346795 14.7242 -0.183074 9.18406 3.90605C4.25402 7.55 1.31908 12.9912 0.64305 18.7291C0.362747 19.8998 0 34.7394 0 34.7394C14.5923 11.9194 35.2523 2.37263 41.9795 0.0147858Z" fill="#696868"></path><path fill-rule="evenodd" clip-rule="evenodd" d="M1.89648 42.4562C1.89648 42.4562 27.2392 43.0004 33.2575 38.5485C38.1875 34.9045 41.1225 29.4634 41.7985 23.7254C42.0788 22.5547 42.6229 0.212891 42.6229 0.212891C16.3403 14.5413 6.76057 32.1015 1.89648 42.4562Z" fill="#9AC33C"></path></svg>