<svg width="228" height="46" viewBox="0 0 228 46" fill="none" xmlns="http://www.w3.org/2000/svg" xmlns:xlink="http://www.w3.org/1999/xlink">
 <path d="M70.6891 38.1101C69.3273 38.1101 68.6465 37.4193 68.6465 36.0377V12.3413C68.6465 10.9597 69.3404 10.2688 70.7284 10.2688H80.1164C83.1017 10.2688 85.4062 10.9857 87.0298 12.4195C88.6534 13.8272 89.4652 15.8084 89.4652 18.3631C89.4652 20.4226 88.9152 22.117 87.8154 23.4465C86.7155 24.7499 85.1574 25.6232 83.141 26.0664C84.398 26.4835 85.4586 27.4872 86.3227 29.0773L89.7009 35.3338C90.0937 36.0377 90.1722 36.6763 89.9365 37.2498C89.7009 37.8234 89.164 38.1101 88.326 38.1101C87.7499 38.1101 87.2786 37.9928 86.9119 37.7582C86.5453 37.5236 86.2311 37.1456 85.9692 36.6242L81.8447 29.0382C81.2948 28.0216 80.6532 27.3438 79.92 27.0049C79.213 26.6399 78.2964 26.4574 77.1704 26.4574H72.7317V36.0377C72.7317 37.4193 72.0508 38.1101 70.6891 38.1101ZM72.7317 23.4074H79.4486C83.4814 23.4074 85.4978 21.7521 85.4978 18.4413C85.4978 15.1567 83.4814 13.5144 79.4486 13.5144H72.7317V23.4074Z" fill="#151719">
 </path>
 <path d="M107.996 38.1883C104.304 38.1883 101.476 37.2238 99.5115 35.2947C97.5736 33.3396 96.6047 30.485 96.6047 26.7312V12.0285C96.6047 10.6729 97.2856 9.99512 98.6473 9.99512C100.009 9.99512 100.69 10.6729 100.69 12.0285V26.653C100.69 31.997 103.125 34.6691 107.996 34.6691C112.867 34.6691 115.302 31.997 115.302 26.653V12.0285C115.302 10.6729 115.97 9.99512 117.306 9.99512C118.641 9.99512 119.309 10.6729 119.309 12.0285V26.7312C119.309 30.485 118.353 33.3396 116.441 35.2947C114.53 37.2238 111.715 38.1883 107.996 38.1883Z" fill="#151719">
 </path>
 <path d="M135.979 38.1101C134.618 38.1101 133.937 37.4193 133.937 36.0377V13.6708H125.609C124.431 13.6708 123.842 13.0973 123.842 11.9503C123.842 10.8293 124.431 10.2688 125.609 10.2688H146.31C147.515 10.2688 148.117 10.8293 148.117 11.9503C148.117 13.0973 147.515 13.6708 146.31 13.6708H137.983V36.0377C137.983 37.4193 137.315 38.1101 135.979 38.1101Z" fill="#151719">
 </path>
 <path d="M163.863 38.1101C162.501 38.1101 161.82 37.4193 161.82 36.0377V13.6708H153.493C152.315 13.6708 151.725 13.0973 151.725 11.9503C151.725 10.8293 152.315 10.2688 153.493 10.2688H174.194C175.398 10.2688 176.001 10.8293 176.001 11.9503C176.001 13.0973 175.398 13.6708 174.194 13.6708H165.866V36.0377C165.866 37.4193 165.199 38.1101 163.863 38.1101Z" fill="#151719">
 </path>
 <path d="M183.461 37.8364C181.995 37.8364 181.262 37.1065 181.262 35.6466V12.4586C181.262 10.9988 181.995 10.2688 183.461 10.2688H197.799C198.925 10.2688 199.488 10.8032 199.488 11.8721C199.488 12.993 198.925 13.5535 197.799 13.5535H185.19V22.1952H196.935C198.061 22.1952 198.624 22.7427 198.624 23.8375C198.624 24.9324 198.061 25.4799 196.935 25.4799H185.19V34.5518H197.799C198.925 34.5518 199.488 35.0992 199.488 36.1941C199.488 37.289 198.925 37.8364 197.799 37.8364H183.461Z" fill="#151719">
 </path>
 <path d="M208.619 38.1101C207.258 38.1101 206.577 37.4193 206.577 36.0377V12.3413C206.577 10.9597 207.271 10.2688 208.659 10.2688H218.047C221.032 10.2688 223.336 10.9857 224.96 12.4195C226.584 13.8272 227.395 15.8084 227.395 18.3631C227.395 20.4226 226.846 22.117 225.746 23.4465C224.646 24.7499 223.088 25.6232 221.071 26.0664C222.328 26.4835 223.389 27.4872 224.253 29.0773L227.631 35.3338C228.024 36.0377 228.102 36.6763 227.867 37.2498C227.631 37.8234 227.094 38.1101 226.256 38.1101C225.68 38.1101 225.209 37.9928 224.842 37.7582C224.476 37.5236 224.161 37.1456 223.899 36.6242L219.775 29.0382C219.225 28.0216 218.583 27.3438 217.85 27.0049C217.143 26.6399 216.227 26.4574 215.101 26.4574H210.662V36.0377C210.662 37.4193 209.981 38.1101 208.619 38.1101ZM210.662 23.4074H217.379C221.412 23.4074 223.428 21.7521 223.428 18.4413C223.428 15.1567 221.412 13.5144 217.379 13.5144H210.662V23.4074Z" fill="#151719">
 </path>
 <path fill-rule="evenodd" clip-rule="evenodd" d="M14.0977 2.64006C14.0977 1.28609 15.1953 0.188477 16.5492 0.188477H32.7074C39.6927 0.188477 45.3553 5.85115 45.3553 12.8364V28.9946C45.3553 30.3485 44.2577 31.4462 42.9038 31.4462H36.499V26.543H40.4522V12.8364C40.4522 8.55909 36.9847 5.09164 32.7074 5.09164H19.0008V28.9946C19.0008 30.3485 17.9032 31.4462 16.5492 31.4462C15.1953 31.4462 14.0977 30.3485 14.0977 28.9946V2.64006Z" fill="#151719">
 </path>
 <path fill-rule="evenodd" clip-rule="evenodd" d="M31.2578 43.0914C31.2578 44.4454 30.1602 45.543 28.8062 45.543L12.6481 45.543C5.66281 45.543 0.000134009 39.8803 0.00013462 32.895L0.000136033 16.7369C0.000136151 15.3829 1.09775 14.2853 2.45172 14.2853L8.85647 14.2853L8.85647 19.1885L4.9033 19.1885L4.9033 32.895C4.9033 37.1723 8.37075 40.6398 12.6481 40.6398L26.3546 40.6398L26.3546 16.7369C26.3546 15.3829 27.4523 14.2853 28.8062 14.2853C30.1602 14.2853 31.2578 15.3829 31.2578 16.7369L31.2578 43.0914Z" fill="#151719">
 </path>
</svg>