<?xml version="1.0" encoding="UTF-8"?>
<svg width="989px" height="393px" viewBox="0 0 989 393" version="1.1" xmlns="http://www.w3.org/2000/svg" xmlns:xlink="http://www.w3.org/1999/xlink">
    <title>Nue (1)</title>
    <g id="Page-1" stroke="none" stroke-width="1" fill="none" fill-rule="evenodd">
        <g id="Nue-(1)" fill-rule="nonzero">
            <path d="M0,125.803113 L91.8169191,125.803113 L91.8169191,162.507959 C96.1299186,156.88843 100.810223,151.560134 105.827179,146.557969 C116.570957,135.844614 129.864988,128.037384 144.459343,123.870328 C152.734949,121.215786 161.38446,119.910545 170.075522,120.004759 C198.096042,120.004759 219.843582,128.536709 235.318141,145.600609 C251.106047,162.664509 259,186.14694 259,216.047902 L259,386.981937 L167.201159,386.981937 L167.201159,245.545448 C167.201159,231.094721 163.814592,220.154317 157.04146,212.724235 C150.268328,205.294153 141.410228,201.591154 130.46716,201.615239 C119.998192,201.285757 109.85815,205.292797 102.446639,212.688108 C95.3601591,220.082063 91.8169191,231.022468 91.8169191,245.509321 L91.8169191,387 L0,387 L0,125.803113 Z" id="Path" fill="#121212"></path>
            <path d="M392.862992,393 C364.856157,393 342.962642,384.474471 327.182446,367.423465 C311.715445,350.360417 303.987968,326.879158 304,296.979689 L304,126 L395.772089,126 L395.772089,267.465553 C395.772089,281.915558 399.150979,292.861437 405.908757,300.30319 C412.666535,307.744943 421.700998,311.447756 433.012146,311.411631 C443.218081,311.742919 453.079695,307.701094 460.115535,300.30319 C467.523795,292.897562 471.227925,281.951683 471.227925,267.465553 L471.227925,126 L563,126 L563,387.219972 L471.119511,387.219972 L471.119511,351.474271 C462.322532,362.777508 451.710516,372.543442 439.715718,380.374282 C427.163837,388.803452 411.546262,393.012016 392.862992,393 Z" id="Path" fill="#121212"></path>
            <path d="M778.273079,234.78603 C776.663917,220.353176 771.860451,208.927167 763.862679,200.508002 C755.976855,191.885898 744.729361,187.136144 733.06045,187.500392 C721.664305,187.146492 710.707919,191.918423 703.194896,200.508002 C695.50935,208.927167 690.375645,220.353176 687.793782,234.78603 L778.273079,234.78603 Z M740.715975,392.988152 C721.510989,393.223431 702.423854,389.952715 684.389325,383.336181 C668.051169,377.007666 653.031007,367.690321 640.095359,355.859635 C627.706382,343.638158 617.904232,329.040877 611.27456,312.939935 C604.306761,295.285573 600.820046,276.446356 601.00715,257.463652 L601.00715,256.489435 C600.860853,238.359558 604.130328,220.364731 610.644105,203.448696 C616.692493,187.330832 625.876638,172.576509 637.663604,160.041887 C649.516616,147.516891 663.76572,137.509796 679.561841,130.616906 C696.273571,123.411354 714.308753,119.797468 732.502047,120.008758 C754.970262,120.008758 774.388275,123.869547 790.756087,131.591124 C806.653623,138.702075 820.673679,149.432732 831.699635,162.928458 C842.810177,176.181284 851.009857,191.628816 855.765003,208.265661 C861.32787,225.89239 864.105379,244.281737 863.996944,262.767726 L863.996944,271.932588 C863.996765,275.150049 863.834441,278.365449 863.510593,281.566519 L689.270848,281.566519 C692.801396,295.999373 699.406162,306.76989 709.085147,313.878071 C719.040332,320.950169 731.241137,324.486218 745.687562,324.486218 C755.974394,324.613505 766.163605,322.47641 775.535103,318.225968 C785.992354,313.225659 795.453324,306.360353 803.455252,297.965849 L854.017742,339.929372 C841.413832,356.086364 825.419512,369.272522 807.16593,378.555298 C788.88874,388.177201 766.738755,392.988152 740.715975,392.988152 Z" id="Shape" fill="#121212"></path>
            <circle id="Oval" fill="#6239EB" cx="917" cy="72" r="72"></circle>
        </g>
    </g>
</svg>