<svg width="296" height="297" viewBox="0 0 296 297" fill="none" xmlns="http://www.w3.org/2000/svg">
<path d="M148.128 1.73099C67.0557 1.73099 1.33301 67.4537 1.33301 148.526C1.33301 229.598 67.0557 295.32 148.128 295.32C229.201 295.32 294.922 229.598 294.922 148.526C294.922 67.4537 229.201 1.73099 148.128 1.73099Z" fill="#ffffff"/>
<path d="M197.438 148.488C198.792 153.678 193.152 184.59 166.526 201.512C164.948 168.795 134.938 178.272 128.846 181.431C122.754 184.59 128.62 185.492 128.62 185.492C128.62 185.492 150.506 178.498 157.276 192.712C168.516 216.316 132.005 230.619 129.749 231.972C127.492 233.326 130.944 234.496 132.908 234.003C159.066 227.378 157.05 241.448 157.05 241.448C157.05 241.448 124.785 241.223 86.4263 240.095C45.813 223.398 60.7903 188.328 70.4063 174.436C80.113 160.414 101.318 137.207 103.801 115.546C108.99 64.327 54.3863 85.311 56.417 102.459C57.3197 109.454 40.1623 116.718 39.4957 101.782C39.269 75.1577 69.7303 62.071 92.293 65.907C114.857 69.7417 142.384 105.618 101.544 157.514C60.705 209.41 97.9343 227.235 95.001 224.075C92.0677 220.916 94.0983 156.159 127.041 144.878C159.984 133.596 162.917 109.228 160.209 103.587C157.501 97.947 156.824 92.983 159.758 87.567C148.928 78.3163 159.758 65.907 159.758 65.907C159.758 65.907 171.492 79.9257 172.168 79.895C177.357 79.6697 183.9 79.6697 187.961 79.895C192.024 80.1217 192.474 87.1163 195.633 88.695C198.792 90.275 198.382 87.847 202.853 89.3723C207.141 95.239 201.274 104.264 201.274 104.264C201.274 104.264 201.952 111.259 192.925 107.874C177.808 103.587 180.741 111.936 180.741 111.936C180.741 111.936 188.237 109.491 193.602 112.839C204.884 121.638 241.437 81.2497 239.181 74.4803C239.632 58.9123 247.754 63.4243 247.754 63.4243C245.024 101.139 225.642 130.888 197.438 148.488ZM205.561 241.448C205.561 241.448 185.932 242.694 182.096 241.448C182.998 238.064 181.418 215.275 174.649 200.61C188.188 192.035 197.664 168.344 197.664 168.344C196.761 183.462 194.054 224.075 196.085 229.942C206.429 230.167 206.489 238.064 205.561 241.448Z" fill="#060258" fill-rule="nonzero"/>
</svg>
