<svg width="220" height="190" viewBox="0 0 220 190" fill="none" xmlns="http://www.w3.org/2000/svg">
<path d="M166.105 93.1682C167.459 98.3572 161.819 129.269 135.193 146.192C133.615 113.475 103.605 122.952 97.5127 126.111C91.4207 129.269 97.2867 130.172 97.2867 130.172C97.2867 130.172 119.173 123.177 125.943 137.392C137.183 160.996 100.672 175.299 98.4157 176.652C96.1587 178.005 99.6107 179.176 101.575 178.683C127.733 172.057 125.717 186.128 125.717 186.128C125.717 186.128 93.4517 185.903 55.093 184.775C14.4797 168.077 29.457 133.008 39.073 119.116C48.7797 105.093 69.985 81.8872 72.4677 60.2252C77.6567 9.00718 23.053 29.9912 25.0837 47.1392C25.9864 54.1332 8.829 61.3972 8.1624 46.4612C7.93569 19.8372 38.397 6.75119 60.9597 10.5872C83.5237 14.4212 111.051 50.2972 70.2107 102.193C29.3717 154.089 66.601 171.915 63.6677 168.755C60.7344 165.596 62.765 100.839 95.7077 89.5572C128.651 78.2762 131.584 53.9082 128.876 48.2672C126.168 42.6272 125.491 37.6632 128.425 32.2472C117.595 22.9962 128.425 10.5872 128.425 10.5872C128.425 10.5872 140.159 24.6052 140.835 24.5752C146.024 24.3492 152.567 24.3492 156.628 24.5752C160.691 24.8012 161.141 31.7962 164.3 33.3752C167.459 34.9552 167.049 32.5272 171.52 34.0522C175.808 39.9192 169.941 48.9442 169.941 48.9442C169.941 48.9442 170.619 55.9392 161.592 52.5532C146.475 48.2672 149.408 56.6162 149.408 56.6162C149.408 56.6162 156.904 54.1712 162.269 57.5192C173.551 66.3172 210.104 25.9292 207.848 19.1602C208.299 3.59217 216.421 8.10417 216.421 8.10417C213.691 45.8192 194.309 75.5682 166.105 93.1682ZM174.228 186.128C174.228 186.128 154.599 187.373 150.763 186.128C151.665 182.744 150.085 159.955 143.316 145.289C156.855 136.715 166.331 113.024 166.331 113.024C165.428 128.141 162.721 168.755 164.752 174.621C175.096 174.847 175.156 182.744 174.228 186.128Z" fill="#060258"/>
</svg>
